<svg width="90" height="34" viewBox="0 0 90 34" fill="none" xmlns="http://www.w3.org/2000/svg">
<g clip-path="url(#clip0_5478_211)">
<rect width="90" height="34" rx="4" fill="white"/>
<path d="M25.8147 21.12C25.0707 21.12 24.4387 20.992 23.9187 20.736C23.4067 20.472 23.0147 20.1 22.7427 19.62C22.4707 19.132 22.3187 18.548 22.2867 17.868C22.2787 17.54 22.2747 17.188 22.2747 16.812C22.2747 16.436 22.2787 16.076 22.2867 15.732C22.3187 15.06 22.4707 14.48 22.7427 13.992C23.0227 13.504 23.4187 13.132 23.9307 12.876C24.4507 12.612 25.0787 12.48 25.8147 12.48C26.3587 12.48 26.8467 12.552 27.2787 12.696C27.7107 12.84 28.0787 13.04 28.3827 13.296C28.6867 13.544 28.9227 13.836 29.0907 14.172C29.2587 14.508 29.3467 14.872 29.3547 15.264C29.3627 15.336 29.3387 15.396 29.2827 15.444C29.2347 15.492 29.1747 15.516 29.1027 15.516H27.9627C27.8747 15.516 27.8027 15.496 27.7467 15.456C27.6907 15.408 27.6507 15.332 27.6267 15.228C27.4987 14.7 27.2787 14.34 26.9667 14.148C26.6547 13.956 26.2667 13.86 25.8027 13.86C25.2667 13.86 24.8387 14.012 24.5187 14.316C24.1987 14.612 24.0267 15.104 24.0027 15.792C23.9787 16.448 23.9787 17.12 24.0027 17.808C24.0267 18.496 24.1987 18.992 24.5187 19.296C24.8387 19.592 25.2667 19.74 25.8027 19.74C26.2667 19.74 26.6547 19.644 26.9667 19.452C27.2787 19.252 27.4987 18.892 27.6267 18.372C27.6507 18.26 27.6907 18.184 27.7467 18.144C27.8027 18.104 27.8747 18.084 27.9627 18.084H29.1027C29.1747 18.084 29.2347 18.108 29.2827 18.156C29.3387 18.204 29.3627 18.264 29.3547 18.336C29.3467 18.728 29.2587 19.092 29.0907 19.428C28.9227 19.764 28.6867 20.06 28.3827 20.316C28.0787 20.564 27.7107 20.76 27.2787 20.904C26.8467 21.048 26.3587 21.12 25.8147 21.12ZM33.3938 21.12C32.7538 21.12 32.2138 21.008 31.7738 20.784C31.3418 20.56 31.0098 20.244 30.7778 19.836C30.5538 19.428 30.4258 18.952 30.3938 18.408C30.3858 18.264 30.3818 18.088 30.3818 17.88C30.3818 17.672 30.3858 17.496 30.3938 17.352C30.4258 16.8 30.5578 16.324 30.7898 15.924C31.0298 15.516 31.3658 15.2 31.7978 14.976C32.2378 14.752 32.7698 14.64 33.3938 14.64C34.0178 14.64 34.5458 14.752 34.9778 14.976C35.4178 15.2 35.7538 15.516 35.9858 15.924C36.2258 16.324 36.3618 16.8 36.3938 17.352C36.4018 17.496 36.4058 17.672 36.4058 17.88C36.4058 18.088 36.4018 18.264 36.3938 18.408C36.3618 18.952 36.2298 19.428 35.9978 19.836C35.7738 20.244 35.4418 20.56 35.0018 20.784C34.5698 21.008 34.0338 21.12 33.3938 21.12ZM33.3938 19.932C33.8178 19.932 34.1458 19.8 34.3778 19.536C34.6098 19.264 34.7378 18.868 34.7618 18.348C34.7698 18.228 34.7738 18.072 34.7738 17.88C34.7738 17.688 34.7698 17.532 34.7618 17.412C34.7378 16.9 34.6098 16.508 34.3778 16.236C34.1458 15.964 33.8178 15.828 33.3938 15.828C32.9698 15.828 32.6418 15.964 32.4098 16.236C32.1778 16.508 32.0498 16.9 32.0258 17.412C32.0178 17.532 32.0138 17.688 32.0138 17.88C32.0138 18.072 32.0178 18.228 32.0258 18.348C32.0498 18.868 32.1778 19.264 32.4098 19.536C32.6418 19.8 32.9698 19.932 33.3938 19.932ZM38.0234 21C37.9434 21 37.8754 20.972 37.8194 20.916C37.7634 20.86 37.7354 20.792 37.7354 20.712V15.048C37.7354 14.968 37.7634 14.9 37.8194 14.844C37.8754 14.788 37.9434 14.76 38.0234 14.76H39.0074C39.0874 14.76 39.1554 14.788 39.2114 14.844C39.2674 14.9 39.2954 14.968 39.2954 15.048V15.54C39.5034 15.284 39.7674 15.072 40.0874 14.904C40.4154 14.728 40.8194 14.64 41.2994 14.64C41.7874 14.64 42.2114 14.752 42.5714 14.976C42.9314 15.192 43.2074 15.5 43.3994 15.9C43.5994 16.3 43.6994 16.78 43.6994 17.34V20.712C43.6994 20.792 43.6714 20.86 43.6154 20.916C43.5594 20.972 43.4914 21 43.4114 21H42.3554C42.2754 21 42.2074 20.972 42.1514 20.916C42.0954 20.86 42.0674 20.792 42.0674 20.712V17.412C42.0674 16.948 41.9514 16.584 41.7194 16.32C41.4954 16.056 41.1674 15.924 40.7354 15.924C40.3194 15.924 39.9874 16.056 39.7394 16.32C39.4914 16.584 39.3674 16.948 39.3674 17.412V20.712C39.3674 20.792 39.3394 20.86 39.2834 20.916C39.2274 20.972 39.1594 21 39.0794 21H38.0234ZM47.9733 21C47.4933 21 47.0893 20.916 46.7613 20.748C46.4333 20.58 46.1893 20.332 46.0293 20.004C45.8693 19.668 45.7893 19.252 45.7893 18.756V16.032H44.8413C44.7613 16.032 44.6933 16.004 44.6373 15.948C44.5813 15.892 44.5533 15.824 44.5533 15.744V15.048C44.5533 14.968 44.5813 14.9 44.6373 14.844C44.6933 14.788 44.7613 14.76 44.8413 14.76H45.7893V12.768C45.7893 12.688 45.8133 12.62 45.8613 12.564C45.9173 12.508 45.9893 12.48 46.0773 12.48H47.0493C47.1293 12.48 47.1973 12.508 47.2533 12.564C47.3093 12.62 47.3373 12.688 47.3373 12.768V14.76H48.8373C48.9173 14.76 48.9853 14.788 49.0413 14.844C49.0973 14.9 49.1253 14.968 49.1253 15.048V15.744C49.1253 15.824 49.0973 15.892 49.0413 15.948C48.9853 16.004 48.9173 16.032 48.8373 16.032H47.3373V18.636C47.3373 18.964 47.3933 19.22 47.5053 19.404C47.6253 19.588 47.8293 19.68 48.1173 19.68H48.9453C49.0253 19.68 49.0933 19.708 49.1493 19.764C49.2053 19.82 49.2333 19.888 49.2333 19.968V20.712C49.2333 20.792 49.2053 20.86 49.1493 20.916C49.0933 20.972 49.0253 21 48.9453 21H47.9733ZM52.1099 21.12C51.6939 21.12 51.3179 21.04 50.9819 20.88C50.6459 20.712 50.3779 20.492 50.1779 20.22C49.9859 19.94 49.8899 19.628 49.8899 19.284C49.8899 18.724 50.1139 18.28 50.5619 17.952C51.0179 17.616 51.6179 17.392 52.3619 17.28L54.0059 17.04V16.788C54.0059 16.452 53.9219 16.192 53.7539 16.008C53.5859 15.824 53.2979 15.732 52.8899 15.732C52.6019 15.732 52.3659 15.792 52.1819 15.912C52.0059 16.024 51.8739 16.176 51.7859 16.368C51.7219 16.472 51.6299 16.524 51.5099 16.524H50.5619C50.4739 16.524 50.4059 16.5 50.3579 16.452C50.3179 16.404 50.2979 16.34 50.2979 16.26C50.3059 16.132 50.3579 15.976 50.4539 15.792C50.5499 15.608 50.7019 15.432 50.9099 15.264C51.1179 15.088 51.3859 14.94 51.7139 14.82C52.0419 14.7 52.4379 14.64 52.9019 14.64C53.4059 14.64 53.8299 14.704 54.1739 14.832C54.5259 14.952 54.8059 15.116 55.0139 15.324C55.2219 15.532 55.3739 15.776 55.4699 16.056C55.5659 16.336 55.6139 16.632 55.6139 16.944V20.712C55.6139 20.792 55.5859 20.86 55.5299 20.916C55.4739 20.972 55.4059 21 55.3259 21H54.3539C54.2659 21 54.1939 20.972 54.1379 20.916C54.0899 20.86 54.0659 20.792 54.0659 20.712V20.244C53.9619 20.396 53.8219 20.54 53.6459 20.676C53.4699 20.804 53.2539 20.912 52.9979 21C52.7499 21.08 52.4539 21.12 52.1099 21.12ZM52.5179 19.98C52.7979 19.98 53.0499 19.92 53.2739 19.8C53.5059 19.68 53.6859 19.496 53.8139 19.248C53.9499 18.992 54.0179 18.672 54.0179 18.288V18.036L52.8179 18.228C52.3459 18.3 51.9939 18.416 51.7619 18.576C51.5299 18.736 51.4139 18.932 51.4139 19.164C51.4139 19.34 51.4659 19.492 51.5699 19.62C51.6819 19.74 51.8219 19.832 51.9899 19.896C52.1579 19.952 52.3339 19.98 52.5179 19.98ZM59.8533 21.12C59.2773 21.12 58.7693 21.012 58.3293 20.796C57.8973 20.58 57.5573 20.268 57.3093 19.86C57.0693 19.444 56.9373 18.944 56.9133 18.36C56.9053 18.24 56.9013 18.084 56.9013 17.892C56.9013 17.692 56.9053 17.528 56.9133 17.4C56.9373 16.816 57.0693 16.32 57.3093 15.912C57.5573 15.496 57.8973 15.18 58.3293 14.964C58.7693 14.748 59.2773 14.64 59.8533 14.64C60.3653 14.64 60.8013 14.712 61.1613 14.856C61.5213 15 61.8173 15.18 62.0493 15.396C62.2813 15.612 62.4533 15.84 62.5653 16.08C62.6853 16.312 62.7493 16.524 62.7573 16.716C62.7653 16.804 62.7373 16.876 62.6733 16.932C62.6173 16.98 62.5493 17.004 62.4693 17.004H61.4133C61.3333 17.004 61.2693 16.984 61.2213 16.944C61.1813 16.904 61.1413 16.844 61.1013 16.764C60.9813 16.444 60.8213 16.22 60.6213 16.092C60.4293 15.956 60.1813 15.888 59.8773 15.888C59.4773 15.888 59.1573 16.016 58.9173 16.272C58.6853 16.52 58.5613 16.916 58.5453 17.46C58.5293 17.764 58.5293 18.044 58.5453 18.3C58.5613 18.852 58.6853 19.252 58.9173 19.5C59.1573 19.748 59.4773 19.872 59.8773 19.872C60.1893 19.872 60.4413 19.808 60.6333 19.68C60.8253 19.544 60.9813 19.316 61.1013 18.996C61.1413 18.916 61.1813 18.856 61.2213 18.816C61.2693 18.776 61.3333 18.756 61.4133 18.756H62.4693C62.5493 18.756 62.6173 18.784 62.6733 18.84C62.7373 18.888 62.7653 18.956 62.7573 19.044C62.7493 19.188 62.7093 19.352 62.6373 19.536C62.5733 19.712 62.4653 19.896 62.3133 20.088C62.1693 20.272 61.9853 20.444 61.7613 20.604C61.5373 20.756 61.2653 20.88 60.9453 20.976C60.6333 21.072 60.2693 21.12 59.8533 21.12ZM66.8288 21C66.3488 21 65.9448 20.916 65.6168 20.748C65.2888 20.58 65.0448 20.332 64.8848 20.004C64.7248 19.668 64.6448 19.252 64.6448 18.756V16.032H63.6968C63.6168 16.032 63.5488 16.004 63.4928 15.948C63.4368 15.892 63.4088 15.824 63.4088 15.744V15.048C63.4088 14.968 63.4368 14.9 63.4928 14.844C63.5488 14.788 63.6168 14.76 63.6968 14.76H64.6448V12.768C64.6448 12.688 64.6688 12.62 64.7168 12.564C64.7728 12.508 64.8448 12.48 64.9328 12.48H65.9048C65.9848 12.48 66.0528 12.508 66.1088 12.564C66.1648 12.62 66.1928 12.688 66.1928 12.768V14.76H67.6928C67.7728 14.76 67.8408 14.788 67.8968 14.844C67.9528 14.9 67.9808 14.968 67.9808 15.048V15.744C67.9808 15.824 67.9528 15.892 67.8968 15.948C67.8408 16.004 67.7728 16.032 67.6928 16.032H66.1928V18.636C66.1928 18.964 66.2488 19.22 66.3608 19.404C66.4808 19.588 66.6848 19.68 66.9728 19.68H67.8008C67.8808 19.68 67.9488 19.708 68.0048 19.764C68.0608 19.82 68.0888 19.888 68.0888 19.968V20.712C68.0888 20.792 68.0608 20.86 68.0048 20.916C67.9488 20.972 67.8808 21 67.8008 21H66.8288Z" fill="#606B74"/>
</g>
<defs>
<clipPath id="clip0_5478_211">
<rect width="90" height="34" fill="white"/>
</clipPath>
</defs>
</svg>
